# xmcd CD database file
#
# Track frame offsets:
#	150
#	19563
#	36975
#	50253
#	63304
#	76168
#	91108
#	106743
#	119821
#	132727
#	145344
#	158939
#	171342
#	185428
#	201404
#	221290
#	234311
#	247288
#	264336
#	277786
#	289842
#	304308
#
# Disc length: 4414 seconds
#
# Revision: 0
# Processed by: cddbd v1.5.2PL0 Copyright (c) Steve Scherf et al.
# Submitted via: CDex 1.70beta2
#
DISCID=42113c16
DTITLE=Sidney Bichet - Giants of Jazz 2
DYEAR=1900
DGENRE=Jazz
TTITLE0=Sweet Lorraine: Bechet Spanier Big Four
TTITLE1=China Boy: Bechet Spanier Big Four
TTITLE2=Coal Cart Blues: Louis Armstrong and His Orchestra
TTITLE3=Shake It and Break It: Sidney Bechet and His New Orleans Feetwarmers 
TTITLE4=Old Man Blues: Sidney Bechet and His New Orleans Feetwarmers 
TTITLE5=Wild Man Blues: Sidney Bechet and His New Orleans Feetwarmers 
TTITLE6=Nobody Knows the Way I Feel Dis Mornin': Sidney Bechet and His New Orleans Feetwarmers 
TTITLE7=Blues in Thirds: Sidney Bechet and His New Orleans Feetwarmers 
TTITLE8=Save It, Pretty Mama: Sidney Bechet and His New Orleans Feetwarmers 
TTITLE9=Stompy Jones: Sidney Bechet and His New Orleans Feetwarmers 
TTITLE10=Egyptian Fantasy: Sidney Bechet and His New Orleans Feetwarmers 
TTITLE11=Blues in the Air: Sidney Bechet and His New Orleans Feetwarmers 
TTITLE12=The Mooche: Sidney Bechet and His New Orleans Feetwarmers 
TTITLE13=What Is This Thing Called Love?: Sidney Bechet and His New Orleans Feetwarmers 
TTITLE14=Blue Horizon: Sidney Bechet and His New Orleans Feetwarmers 
TTITLE15=Shine: Art Hodes Hot Five
TTITLE16=Quincy Street Stomp: Bechet Nicholas Blue Five
TTITLE17=Bechet's Fantasy: Bechet Nicholas Blue Five
TTITLE18=Spreadin' Joy: Sidney Bechet with Bob Wilber's Wildcats 
TTITLE19=Kansas City Man Blues: Sidney Bechet with Bob Wilber's Wildcats 
TTITLE20=Song of Songs: Sidney Bechet Quartet
TTITLE21=As to le Cafard?: Sidney Bechet with Claude Luter and His Orchestra
EXTD=
EXTT0=
EXTT1=
EXTT2=
EXTT3=
EXTT4=
EXTT5=
EXTT6=
EXTT7=
EXTT8=
EXTT9=
EXTT10=
EXTT11=
EXTT12=
EXTT13=
EXTT14=
EXTT15=
EXTT16=
EXTT17=
EXTT18=
EXTT19=
EXTT20=
EXTT21=
PLAYORDER=
